<?xml version="1.0" encoding="utf-8"?>
<!-- Generator: Adobe Illustrator 22.1.0, SVG Export Plug-In . SVG Version: 6.00 Build 0)  -->
<svg version="1.1" id="图层_1" xmlns="http://www.w3.org/2000/svg" xmlns:xlink="http://www.w3.org/1999/xlink" x="0px" y="0px"
	 viewBox="0 0 846 288.2" fill='currentColor' style="enable-background:new 0 0 846 288.2;color: #fff;" xml:space="preserve">
<g>
	<path d="M160.5,85.4h36.3l-3.3,57.9h1.8v23.1l-138.3,3L43.2,280.1l-36-4.8l20.4-163.5H11.7V88.7l69.6-0.6l-1.5-75.3l42.9-1.5
		l0.3,29.1l65.7-4.5l1.5,23.1l-66.9,4.8l0.3,23.7l36.6-0.3L160.5,85.4z M60,146.3l97.5-2.1l1.8-33.6l-94.8,0.9L60,146.3z"/>
	<path d="M284.4,104.6l40.8,24.3l-12,21.9l-45-18.6L284.4,104.6z M348.6,184.7l-47.7,77.1l-16.2-10.2l45.9-77.1L348.6,184.7z
		 M311.4,24.8l33.9,32.7l-18.9,16.2l-41.1-21L311.4,24.8z M532.2,128.3l1.5,23.7l-187.8,13.2l-2.1-23.7l86.7-6l-2.4-28.5l-47.7,2.7
		l-11.1,21.6l-27-13.5l35.4-69.9L405,61.7L392.7,86l33.6-3.3l-3.9-48.6h33.9l0.3,45.9l45-4.5l3,26.7l-47.7,3v28.5L532.2,128.3z
		 M499.5,168.8l3.3,88.2l-35.7,1.5V257h-56.7v5.1h-29.7l-4.8-88.5h34.5v1.5l53.7-2.4v-2.4L499.5,168.8z M410.4,233.3h55.8l-1.2-36.6
		l-54.6,2.4V233.3z"/>
	<path d="M603,45.5v9.9l15.9-4.5v-5.4h21.6v169.8h-20.1v-45.9l-12,1.8l2.7,60l-37.8,1.5l-8.1-185.4L603,45.5z M605.4,99.2l13.8-4.2
		V66.5l-15.3,3.6L605.4,99.2z M607.5,149l12.3-2.1v-28.8l-13.5,3.3L607.5,149z M797.7,147.8l8.4,0.9l6-0.9v1.2l26.7,2.1L832.5,269
		l-32.7-1.5l-0.3,1.5l-6.3-1.8h-1.8l-32.7-9.3l4.8-20.4l29.1,8.1l1.2-23.1l-72.6-5.4V215l-25.5,49.2L672,251.6l27.9-53.7l-1.8-32.4
		l-24,3l-1.2-6v57.6h-24V98l1.5-1.8V47.3h24.9v2.1l15.6-2.7v-2.4l26.7-1.5l9.3,157.2l67.2-2.7v19.5l2.4-45l-53.7,5.7l-15.6,1.5V75.5
		l22.5,6.3l-0.9,21l9.6-15.3l19.8,14.4l5.1-30.6l-48.6,4.2L732,53.6l17.1-1.5l6.3-45.6l28.2,3.3L777,49.7l9.9-0.9l1.8-9.6l40.5,8.1
		l-15.6,94.2l-5.1-0.9l-50.7,8.1v-15.9l15.9-4.5l1.5-8.7l-26.7-6.6l-1.8,42.3l50.7-5.7L797.7,147.8z M673.2,146l23.4-2.7l-1.8-32.1
		l-21,3.6L673.2,146z M674.4,92.3l18.9-3.3l-1.5-28.8L675,63.5L674.4,92.3z"/>
</g>
</svg>
