<?xml version="1.0" encoding="utf-8"?>
<!-- Generator: Adobe Illustrator 22.1.0, SVG Export Plug-In . SVG Version: 6.00 Build 0)  -->
<svg version="1.1" id="图层_1" xmlns="http://www.w3.org/2000/svg" xmlns:xlink="http://www.w3.org/1999/xlink" x="0px" y="0px"
	 viewBox="0 0 781.5 288.2" fill="currentColor" style="enable-background:new 0 0 781.5 288.2;" xml:space="preserve">
<g>
	<path d="M80.3,20.5c10.8,4,13.3,1.1,16.4,14.6c0.9,4-2,11.2,1.3,14.3c5.6,5.2,33.4-4.3,41.5-2.5c10.6,2.4,14.4,5.7,17.6,13.5
		c-5.3,2.3-7.4,7.8-13.5,10.5c-3.3,1.4-16.3,3.3-19.3,3.5c-4.8,0.4-21.1-3.5-25.2-0.6c-3.5,3.1-4.3,7.2-2.5,12.2
		c-2.4,7.6-0.7,10.5,5.1,8.6c7.8,5,37.5,0.7,48.7,4.2c21.8,6.9,22.6,20.4,17.6,40.6c-3.4,13.5-9,22.8-20.2,28.1
		c-2.1-0.1-4.1-0.3-6.2-0.4c-5.1-2-7.1-0.5-6.2,4.5c-7.8,2.9-14.9,6.2-23.4,7.6c-13.8,2.3-45.6-4.2-55.1,6.4
		c-8.6,9.7-4.8,47.5-7.6,60.7c-2.3,10.5-3.8,15.8-12.6,21.3c-17.1,10.7-14.2-11.3-14.3-25.7c-0.2-20.4,1.4-40,4.7-60.1
		c1.8-10.5,3.4-20.9,5-31.4c1.1-7,2.1-14,3.1-21c-2.1-0.7-4.1-1.4-6.2-2c-1.5-1.8-17.3-6.7-16.7-14.4c0.6-8.1,8.3-9.6,15.8-11.1
		c9.8-2,20.4,0,30.3-1.5c13.5-2,9.7-0.3,12.5-6.7C78,77.2,52.8,27.4,80.3,20.5z M94.9,119.5c-19.7,3.6-28,1.9-30,22.1
		c-1.5,14.5-5.8,11.4,8.6,13.6c7.9,1.2,21.2-0.5,29.2-1.1c19.1-1.3,33.9,1,32.7-22.1c-0.5-9.2,5.2-7.6-3.2-12.9
		C124.4,114.4,103.6,118.9,94.9,119.5z"/>
	<path d="M283.6,183.4c2,3.9,5.2,6.3,9.4,7c-0.4-0.4-9.2,18-7,15.2c-5.3,6.7-16.9,10.5-24.9,12.6c-16.9,4.4-38.9,0.3-38.9-17.9
		c7.4-1.5,15.3-1.5,22.3-4.1C256.6,191.7,270.1,181.1,283.6,183.4z M276.6,101.4c6.8,3.7,14.8,7.3,13.2,15.8
		c-1.7,9.1-5.2,3.9-12.4,5.7c-11.4,2.8-28.8,5.7-39.4,1.6c-9-3.5-19.2-14-8.2-22C237.7,96.7,266.7,101.4,276.6,101.4z M276.6,146.5
		c17.1,3.8,19.4,13.9,2.9,20.1c-16.5,6.2-32.4-1.2-48.6-3.1c6-12.1,2.7-6.4,12.9-11.7C254.8,146.1,264.1,145.2,276.6,146.5z
		 M372.7,26.9c29.5,4.2,24.7,20.5,25.8,46.9c12.2-2,37.5-8.9,45.6,3.4c11.8,18.1-19.2,17.2-30.1,18.4c-26.5,2.9-12.4,8.9-21.4,27.4
		c-4.5,9.3-7.6,8.5-18.8,10.5c-1.4,1.4,27.5,2.3,32.2,2.4c13.5,0.1,26.2-1.9,39.4-2.3c8.2-0.3,21.6,1.5,20.7,11.4
		c-1.2,13-20.6,14.1-29.6,14.7c-29.6,2.1-59,3.9-88.4,6.2c-12,0.9-52.8,2.6-52.8-15.4c5.8,0,4-3.8,11.1-5.3
		c-4.7-32.3-10.5-71,1.8-101.4c12,1.7,21.7,4.3,26.2,16c5,13-1.4,25.4,20,17.3c10.6-4,6.9,0.1,9.2-11.7c1.4-6.8-0.9-14.3,0.3-21.1
		c0.9-5.3,4-10.4,2.3-14.1C368.6,30.1,370.7,28.9,372.7,26.9z M396.1,175.2c21.1,2.1,61.6,5.6,45.2,32.9
		c-8.1,13.5-16.2,31.9-28.3,41.6c-19.3,15.4-55.4,22.3-75.6,5.4c-28.1-23.4-23.2-47,4.8-67c-1.4-1.6-2.7-3.1-4.1-4.7
		C356.8,180.3,377.3,179.9,396.1,175.2z M334,101.4c-0.3,7.7-6.6,33.2,0,38.7c7,5.9,29.7-3.1,31.6-7.2c3.6-8-3.6-28.1-7.9-30.4
		C355,101.1,334.4,100.7,334,101.4z M362.1,211.5c-10.8,8.7-21.2,23-2.9,28.7c11.4,3.6,28.5-7,36.7-13.4
		c7.2-5.7,21.9-19.1,14.3-26.4C398.9,189.5,371.7,206.2,362.1,211.5z M385.6,113.1c2.1,0,4.3,0,6.4,0
		C391.2,109.4,389,109.4,385.6,113.1z"/>
	<path d="M729.5,14.6c13.3,10-1.8,14.6-10.1,16.1c-14.5,2.5-28.8-2.4-30.8,14.9c-3,25.9,42.3,5.3,44.5,37.9
		c0.9,13.2-1.6,27.6-3.9,40.6c-1.2,6.5-4,13.5-4.5,20.1c-1,13.4-2.5,10.9,9.8,16.5c26.4,12.2,34,28.8,32,57.8
		c-1.6,23.5-11.3,47.4-35.7,56c-20.6,7.3-50.3-1.9-62-20.5c-8.1-13-10.4-24.6,5.8-16.6c9.7,4.8,21.4,20.2,32.6,21
		c26.6,1.9,36.2-48.3,29.3-65.6c-1.9,1.9-2.9,4.3-2.9,7c-6.2,2.3-12.4,4.4-18.6,6.4c-9.4,3.1-18.9,5.9-28.5,8.4
		c-14.7,3.9-44.7,15.1-56.8,2.3c-7.1-7.5-3.9-13.5-4-23.2c0-12.3,2.9-16.1-11.9-15.4c-15.5,0.8-12.4,7.7-13.8,20.4
		c-1.3,12.4-1.8,25-1.3,37.5c-11.8,1-12.1-6.2-18.2-14.1c-8.7,3.5-4,12.2-17,7c-12.5-4.9-8.1-18.2-8.4-28.1
		c-0.2-12.1,2.3-18.5-11.3-16.7c-15,2-10.7,17.5-10.1,30.5c0.5,8.7,6.5,29.7-10.1,19.6c-8.8-5.3-6.8-13.5-7.5-21.9
		c-2-24.4-1.7-48.3,0.4-72.7c1.3-14.8-2.7-55,9.5-65.4c8-6.9,45.9-8.6,54.6-2.2c11.6,8.5,0.8,49-0.7,63.9
		c-2.7,27.8-3.8,55.3-1.8,83.2c10.8-1.8,8.8-48.1,9.2-57.7c0.8-16.6,1.9-30.4,5.4-46.5c2-9.3,0.2-18.5,1.8-27.5
		c2.3-13.5-2.1-9.3,10.5-15.8c9.4-4.8,34.5-7.5,42.2,1.5c8,9.4,1.2,40.8,0.4,54.7c-1.1,19.1-3.9,39.3-3.1,58.4
		c1,22.3,12.6,15.4,31.1,11.5c19.9-4.2,37.7-10.5,58.3-5.6c13.7-27.5-64.9-16-74.4-15.8c-1.1-5.6,0.8-9.7,5.9-12.3
		c-0.2-3.7-0.4-7.4-0.7-11.1c1.7-12.2-0.9-26.3-0.8-38.7c0.2-23.9,1.6-47.8,4.4-71.5c-5-0.2-30.5,1-33.4-2.9
		c-7.6-10.3,14.2-12.5,19-13.8C678.8,19.8,704.1,16.1,729.5,14.6z M533.7,150c-1,4.9-1.8,17.7,2.9,21.7c10.6,9.1,18-4.2,20.7-11
		C566.5,137.5,547.2,136.5,533.7,150z M541.4,87.9c-2.2,5.9-9.7,35.4-1.8,39.8c2.5,1.4,19.1-3.2,20.5-4.7c2.7-2.9,1.6-21,1.3-24.8
		C560.2,83.8,555.7,79.1,541.4,87.9z M604.6,140c-6.6,12.6-6.3,31.6,11.8,21.4c6.2-3.5,11.7-6.6,10.4-15.1
		C625.2,134.6,614,137.7,604.6,140z M607,90.8c-0.7,4.8-6,26.5-2.3,31.1c6.9,8.7,17.7,4.9,21.1-2c2.8-5.6,2.7-24.4-0.4-29.9
		C621.2,82.7,612.1,80.6,607,90.8z M683.2,123c-2.4,13.7,0.7,55.5,17.9,29.6c1.6-2.4,4.3-23.1,3.1-25.5
		C700.7,120.1,693.1,118.1,683.2,123z M686.1,76.2c-0.8,4.1-5.4,21.7-2.3,25.8c6.4,8.6,20.6,3.7,24.8-1.7
		C720.4,85,702.2,61.6,686.1,76.2z"/>
</g>
</svg>
